<svg width="811" height="811" viewBox="62 88 811 811" fill="none" xmlns="http://www.w3.org/2000/svg">
<path d="M179.187 140.314C180.397 106.494 219.744 88.62 246.011 109.957L388.867 225.999C408.468 241.921 409.155 271.607 390.311 288.418L238.45 423.893C211.504 447.931 168.891 427.918 170.183 391.831L179.187 140.314Z" fill="black"/>
<path d="M283.187 706.405C276.859 698.498 284.946 687.273 294.451 690.773L406.392 731.996C412.444 734.225 414.835 741.517 411.277 746.897L375.55 800.913C371.809 806.57 363.64 806.94 359.402 801.644L283.187 706.405Z" fill="black"/>
<line x1="100.245" y1="514.861" x2="158.245" y2="514.861" stroke="black" stroke-width="24" stroke-linecap="round"/>
<line x1="116.855" y1="575.237" x2="178.621" y2="559.251" stroke="black" stroke-width="24" stroke-linecap="round"/>
<line x1="151.814" y1="630.086" x2="196.47" y2="597.292" stroke="black" stroke-width="24" stroke-linecap="round"/>
<path d="M755.313 140.314C754.102 106.494 714.756 88.62 688.489 109.957L545.632 225.999C526.031 241.921 525.345 271.607 544.189 288.418L696.05 423.893C722.996 447.931 765.609 427.918 764.317 391.831L755.313 140.314Z" fill="black"/>
<path d="M651.313 706.405C657.641 698.498 649.553 687.273 640.049 690.773L528.108 731.996C522.055 734.225 519.665 741.517 523.223 746.897L558.95 800.913C562.691 806.57 570.86 806.94 575.098 801.644L651.313 706.405Z" fill="black"/>
<line x1="12" y1="-12" x2="70" y2="-12" transform="matrix(-1 0 0 1 846.255 526.861)" stroke="black" stroke-width="24" stroke-linecap="round"/>
<line x1="12" y1="-12" x2="75.8009" y2="-12" transform="matrix(-0.968099 -0.250567 -0.250567 0.968099 826.255 589.861)" stroke="black" stroke-width="24" stroke-linecap="round"/>
<line x1="12" y1="-12" x2="67.404" y2="-12" transform="matrix(-0.806004 -0.591909 -0.591909 0.806004 785.255 646.861)" stroke="black" stroke-width="24" stroke-linecap="round"/>
<rect x="423" y="727.861" width="89" height="50" rx="25" fill="black"/>
<path d="M473.814 894.657C469.974 898.231 464.026 898.231 460.186 894.657L425.685 862.541C423.011 860.052 421.907 856.303 422.805 852.763L436.874 797.287C437.999 792.852 441.991 789.745 446.567 789.745L487.433 789.745C492.009 789.745 496.001 792.852 497.126 797.287L511.195 852.763C512.093 856.303 510.989 860.052 508.315 862.541L473.814 894.657Z" fill="black"/>
<path d="M474.745 223.861C655.618 223.861 802.245 332.88 802.245 467.361C802.245 601.843 655.618 710.861 474.745 710.861C293.872 710.861 147.245 601.843 147.245 467.361C147.245 332.88 293.872 223.861 474.745 223.861ZM320.245 399.861C277.167 399.861 242.245 438.141 242.245 485.361C242.245 532.582 277.167 570.861 320.245 570.861C363.323 570.861 398.245 532.581 398.245 485.361C398.245 438.141 363.323 399.861 320.245 399.861ZM614.255 399.861C571.177 399.861 536.255 438.141 536.255 485.361C536.255 532.582 571.177 570.861 614.255 570.861C657.333 570.861 692.255 532.582 692.255 485.361C692.255 438.141 657.333 399.861 614.255 399.861ZM331.245 436.861C350.023 436.862 365.245 458.576 365.245 485.361C365.245 512.147 350.023 533.861 331.245 533.861C312.467 533.861 297.245 512.147 297.245 485.361C297.245 458.576 312.467 436.861 331.245 436.861ZM603.255 436.861C622.033 436.861 637.255 458.576 637.255 485.361C637.255 512.147 622.033 533.861 603.255 533.861C584.477 533.861 569.255 512.147 569.255 485.361C569.255 458.576 584.477 436.861 603.255 436.861Z" fill="black"/>
</svg>
